<svg width="44" height="56" viewBox="0 0 44 56" fill="none" xmlns="http://www.w3.org/2000/svg">
<rect width="7.04203" height="51.1616" rx="3.52101" transform="matrix(0.863668 0.504062 -0.423394 0.905946 31.5107 4.37451)" fill="#191919"/>
<rect width="5.25315" height="40.0645" rx="2.62658" transform="matrix(0.863668 0.504062 -0.423394 0.905946 37.7122 16.0972)" fill="#191919"/>
<rect width="4.08053" height="16.5137" rx="2.04027" transform="matrix(0.863668 0.504062 -0.423394 0.905946 40.1599 30.3232)" fill="#191919"/>
<path fill-rule="evenodd" clip-rule="evenodd" d="M21.8402 12.7795C24.9981 12.7795 27.5581 9.91871 27.5581 6.38975C27.5581 2.86079 24.9981 0 21.8402 0C19.1145 0 16.8344 2.13116 16.2612 4.98369C5.40237 10.4096 1.40968 20.4109 0.546454 23.715C-0.264211 26.8177 -0.260867 32.0739 1.15735 32.3863C3.10422 32.8153 3.03801 31.494 2.98672 30.4705C2.97893 30.3151 2.97149 30.1665 2.97149 30.032C2.97149 20.1381 11.3255 12.7232 17.0133 9.81674C18.0281 11.5979 19.8107 12.7795 21.8402 12.7795Z" fill="#D50104"/>
<path fill-rule="evenodd" clip-rule="evenodd" d="M19.873 16.1865C20.5782 15.9335 21.4887 15.6069 20.6359 14.0911C20.0146 12.9869 16.4683 14.5053 14.6101 16.0861C12.8044 17.6223 7.99114 22.9675 6.77 32.0346C6.46447 31.9782 6.15077 31.9488 5.83093 31.9488C2.67303 31.9488 0.113037 34.8096 0.113037 38.3386C0.113037 41.8675 2.67303 44.7283 5.83093 44.7283C8.98884 44.7283 11.5488 41.8675 11.5488 38.3386C11.5488 36.648 10.9613 35.1107 10.002 33.9679C10.319 28.3347 12.9038 19.1621 19.5729 16.3006C19.6636 16.2617 19.7659 16.2249 19.873 16.1865Z" fill="#D50104"/>
</svg>
