<svg width="24" height="21" viewBox="0 0 24 21" fill="none" xmlns="http://www.w3.org/2000/svg">
<path d="M20.5242 3.13038C20.0134 2.61938 19.407 2.21403 18.7396 1.93746C18.0721 1.6609 17.3567 1.51855 16.6342 1.51855C15.9117 1.51855 15.1963 1.6609 14.5288 1.93746C13.8614 2.21403 13.255 2.61938 12.7442 3.13038L11.6842 4.19038L10.6242 3.13038C9.59251 2.09869 8.19323 1.51909 6.7342 1.51909C5.27517 1.51909 3.87589 2.09869 2.8442 3.13038C1.81251 4.16207 1.23291 5.56135 1.23291 7.02038C1.23291 8.47941 1.81251 9.87869 2.8442 10.9104L3.9042 11.9704L11.6842 19.7504L19.4642 11.9704L20.5242 10.9104C21.0352 10.3996 21.4406 9.79319 21.7171 9.12574C21.9937 8.45828 22.136 7.74287 22.136 7.02038C22.136 6.29789 21.9937 5.58248 21.7171 4.91502C21.4406 4.24757 21.0352 3.64114 20.5242 3.13038Z" stroke="black" stroke-width="2" stroke-linecap="round" stroke-linejoin="round"/>
</svg>
