<svg width="99" height="28" viewBox="0 0 99 28" fill="none" xmlns="http://www.w3.org/2000/svg">
<rect width="99" height="28" rx="14" fill="#FFE500"/>
<path d="M17 10L18.3505 13.6495L22 15L18.3505 16.3505L17 20L15.6495 16.3505L12 15L15.6495 13.6495L17 10Z" fill="#775600"/>
<path d="M21.5 8L22.1752 9.82477L24 10.5L22.1752 11.1752L21.5 13L20.8248 11.1752L19 10.5L20.8248 9.82477L21.5 8Z" fill="#775600"/>
<path d="M29.12 20V8.48H33.776C33.888 8.48 34.0267 8.48533 34.192 8.496C34.3573 8.50133 34.5147 8.51733 34.664 8.544C35.304 8.64533 35.8373 8.864 36.264 9.2C36.696 9.536 37.0187 9.96 37.232 10.472C37.4453 10.984 37.552 11.5493 37.552 12.168C37.552 12.792 37.4453 13.36 37.232 13.872C37.0187 14.384 36.696 14.808 36.264 15.144C35.8373 15.48 35.304 15.6987 34.664 15.8C34.5147 15.8213 34.3547 15.8373 34.184 15.848C34.0187 15.8587 33.8827 15.864 33.776 15.864H30.792V20H29.12ZM30.792 14.28H33.712C33.8187 14.28 33.936 14.2747 34.064 14.264C34.1973 14.2533 34.3227 14.2347 34.44 14.208C34.7813 14.128 35.056 13.9813 35.264 13.768C35.472 13.5493 35.6213 13.2987 35.712 13.016C35.8027 12.7333 35.848 12.4507 35.848 12.168C35.848 11.8853 35.8027 11.6053 35.712 11.328C35.6213 11.0453 35.472 10.7973 35.264 10.584C35.056 10.3653 34.7813 10.216 34.44 10.136C34.3227 10.104 34.1973 10.0827 34.064 10.072C33.936 10.0613 33.8187 10.056 33.712 10.056H30.792V14.28ZM42.7939 20.24C41.9299 20.24 41.1805 20.0453 40.5459 19.656C39.9112 19.2667 39.4205 18.7307 39.0739 18.048C38.7325 17.36 38.5619 16.568 38.5619 15.672C38.5619 14.7707 38.7379 13.9787 39.0899 13.296C39.4419 12.608 39.9352 12.0747 40.5699 11.696C41.2045 11.312 41.9459 11.12 42.7939 11.12C43.6579 11.12 44.4072 11.3147 45.0419 11.704C45.6765 12.0933 46.1672 12.6293 46.5139 13.312C46.8605 13.9947 47.0339 14.7813 47.0339 15.672C47.0339 16.5733 46.8579 17.368 46.5059 18.056C46.1592 18.7387 45.6685 19.2747 45.0339 19.664C44.3992 20.048 43.6525 20.24 42.7939 20.24ZM42.7939 18.664C43.6205 18.664 44.2365 18.3867 44.6419 17.832C45.0525 17.272 45.2579 16.552 45.2579 15.672C45.2579 14.7707 45.0499 14.0507 44.6339 13.512C44.2232 12.968 43.6099 12.696 42.7939 12.696C42.2339 12.696 41.7725 12.824 41.4099 13.08C41.0472 13.3307 40.7779 13.68 40.6019 14.128C40.4259 14.5707 40.3379 15.0853 40.3379 15.672C40.3379 16.5787 40.5459 17.304 40.9619 17.848C41.3779 18.392 41.9885 18.664 42.7939 18.664ZM52.8479 20.24C52.0212 20.24 51.3279 20.04 50.7679 19.64C50.2079 19.2347 49.7839 18.688 49.4959 18C49.2079 17.312 49.0639 16.536 49.0639 15.672C49.0639 14.808 49.2052 14.032 49.4879 13.344C49.7759 12.656 50.1972 12.1147 50.7519 11.72C51.3119 11.32 51.9999 11.12 52.8159 11.12C53.6265 11.12 54.3252 11.32 54.9119 11.72C55.5039 12.1147 55.9599 12.656 56.2799 13.344C56.5999 14.0267 56.7599 14.8027 56.7599 15.672C56.7599 16.536 56.5999 17.3147 56.2799 18.008C55.9652 18.696 55.5145 19.24 54.9279 19.64C54.3465 20.04 53.6532 20.24 52.8479 20.24ZM48.7839 23.84V11.36H50.2719V17.576H50.4639V23.84H48.7839ZM52.6159 18.728C53.1492 18.728 53.5892 18.592 53.9359 18.32C54.2879 18.048 54.5492 17.6827 54.7199 17.224C54.8959 16.76 54.9839 16.2427 54.9839 15.672C54.9839 15.1067 54.8959 14.5947 54.7199 14.136C54.5492 13.6773 54.2852 13.312 53.9279 13.04C53.5705 12.768 53.1145 12.632 52.5599 12.632C52.0372 12.632 51.6052 12.76 51.2639 13.016C50.9279 13.272 50.6772 13.6293 50.5119 14.088C50.3519 14.5467 50.2719 15.0747 50.2719 15.672C50.2719 16.2693 50.3519 16.7973 50.5119 17.256C50.6719 17.7147 50.9252 18.0747 51.2719 18.336C51.6185 18.5973 52.0665 18.728 52.6159 18.728ZM61.7823 20.232C61.1849 20.232 60.6836 20.136 60.2783 19.944C59.8729 19.752 59.5423 19.5013 59.2863 19.192C59.0356 18.8773 58.8436 18.536 58.7103 18.168C58.5769 17.8 58.4863 17.44 58.4383 17.088C58.3903 16.736 58.3663 16.4267 58.3663 16.16V11.36H60.0623V15.608C60.0623 15.944 60.0889 16.2907 60.1423 16.648C60.2009 17 60.3076 17.328 60.4623 17.632C60.6223 17.936 60.8436 18.1813 61.1263 18.368C61.4143 18.5547 61.7876 18.648 62.2463 18.648C62.5449 18.648 62.8276 18.6 63.0943 18.504C63.3609 18.4027 63.5929 18.2427 63.7903 18.024C63.9929 17.8053 64.1503 17.5173 64.2623 17.16C64.3796 16.8027 64.4383 16.368 64.4383 15.856L65.4783 16.248C65.4783 17.032 65.3316 17.7253 65.0383 18.328C64.7449 18.9253 64.3236 19.392 63.7743 19.728C63.2249 20.064 62.5609 20.232 61.7823 20.232ZM64.6383 20V17.504H64.4383V11.36H66.1263V20H64.6383ZM68.53 20V8.24H70.202V20H68.53ZM75.0444 20.24C74.4044 20.24 73.8684 20.1227 73.4364 19.888C73.0044 19.648 72.6764 19.3333 72.4524 18.944C72.2337 18.5493 72.1244 18.1173 72.1244 17.648C72.1244 17.2107 72.2017 16.8267 72.3564 16.496C72.511 16.1653 72.7404 15.8853 73.0444 15.656C73.3484 15.4213 73.7217 15.232 74.1644 15.088C74.5484 14.976 74.983 14.8773 75.4684 14.792C75.9537 14.7067 76.463 14.6267 76.9964 14.552C77.535 14.4773 78.0684 14.4027 78.5964 14.328L77.9884 14.664C77.999 13.9867 77.855 13.4853 77.5564 13.16C77.263 12.8293 76.7564 12.664 76.0364 12.664C75.583 12.664 75.167 12.7707 74.7884 12.984C74.4097 13.192 74.1457 13.5387 73.9964 14.024L72.4364 13.544C72.6497 12.8027 73.055 12.2133 73.6524 11.776C74.255 11.3387 75.055 11.12 76.0524 11.12C76.8257 11.12 77.4977 11.2533 78.0684 11.52C78.6444 11.7813 79.0657 12.1973 79.3324 12.768C79.471 13.0507 79.5564 13.3493 79.5884 13.664C79.6204 13.9787 79.6364 14.3173 79.6364 14.68V20H78.1564V18.024L78.4444 18.28C78.087 18.9413 77.631 19.4347 77.0764 19.76C76.527 20.08 75.8497 20.24 75.0444 20.24ZM75.3404 18.872C75.815 18.872 76.223 18.7893 76.5644 18.624C76.9057 18.4533 77.1804 18.2373 77.3884 17.976C77.5964 17.7147 77.7324 17.4427 77.7964 17.16C77.887 16.904 77.9377 16.616 77.9484 16.296C77.9644 15.976 77.9724 15.72 77.9724 15.528L78.5164 15.728C77.9884 15.808 77.5084 15.88 77.0764 15.944C76.6444 16.008 76.2524 16.072 75.9004 16.136C75.5537 16.1947 75.2444 16.2667 74.9724 16.352C74.743 16.432 74.5377 16.528 74.3564 16.64C74.1804 16.752 74.039 16.888 73.9324 17.048C73.831 17.208 73.7804 17.4027 73.7804 17.632C73.7804 17.856 73.8364 18.064 73.9484 18.256C74.0604 18.4427 74.231 18.592 74.4604 18.704C74.6897 18.816 74.983 18.872 75.3404 18.872ZM81.7138 20V11.36H83.2018V13.456L82.9938 13.184C83.1004 12.9067 83.2391 12.6533 83.4098 12.424C83.5804 12.1893 83.7778 11.9973 84.0018 11.848C84.2204 11.688 84.4631 11.5653 84.7298 11.48C85.0018 11.3893 85.2791 11.336 85.5618 11.32C85.8444 11.2987 86.1164 11.312 86.3778 11.36V12.928C86.0951 12.8533 85.7804 12.832 85.4338 12.864C85.0924 12.896 84.7778 13.0053 84.4898 13.192C84.2178 13.368 84.0018 13.5813 83.8418 13.832C83.6871 14.0827 83.5751 14.3627 83.5058 14.672C83.4364 14.976 83.4018 15.2987 83.4018 15.64V20H81.7138Z" fill="#775600"/>
</svg>
