<svg width="61" height="40" viewBox="0 0 61 40" fill="none" xmlns="http://www.w3.org/2000/svg">
<path fill-rule="evenodd" clip-rule="evenodd" d="M7.31264 0C3.41205 0 0.25 3.16205 0.25 7.06264V21.1879C0.25 21.342 0.254935 21.4949 0.264654 21.6466C0.254903 21.8858 0.25 22.1258 0.25 22.3662C0.25 27.049 2.11024 31.54 5.4215 34.8513C8.45438 37.8842 12.477 39.6997 16.7302 39.9836C17.3789 40.0269 17.9066 39.4958 17.9066 38.8457V32.9971C17.9066 32.347 17.3776 31.8276 16.7325 31.7469C14.6581 31.4873 12.7156 30.545 11.2217 29.051C10.9674 28.7967 10.729 28.5293 10.5073 28.2506H21.4379C25.3385 28.2506 28.5006 25.0885 28.5006 21.1879V7.06264C28.5006 3.16205 25.3385 0 21.4379 0H7.31264Z" fill="#D70306"/>
<path fill-rule="evenodd" clip-rule="evenodd" d="M39.0949 0C35.1943 0 32.0322 3.16205 32.0322 7.06264V21.1879C32.0322 21.3423 32.0372 21.4955 32.0469 21.6474C32.0372 21.8864 32.0323 22.126 32.0323 22.3662C32.0323 27.049 33.8926 31.54 37.2038 34.8513C40.2367 37.8842 44.2593 39.6997 48.5125 39.9836C49.1612 40.0269 49.6889 39.4958 49.6889 38.8457L49.6889 32.9971C49.6889 32.347 49.1599 31.8276 48.5148 31.7469C46.4404 31.4873 44.4979 30.545 43.004 29.051C42.7497 28.7967 42.5113 28.5293 42.2896 28.2506H53.2201C57.1207 28.2506 60.2828 25.0885 60.2828 21.1879V7.06264C60.2828 3.16205 57.1207 0 53.2201 0H39.0949Z" fill="#D70306"/>
</svg>
